<?xml version="1.0" encoding="UTF-8" standalone="no"?>
<svg
   xmlns:dc="http://purl.org/dc/elements/1.1/"
   xmlns:cc="http://creativecommons.org/ns#"
   xmlns:rdf="http://www.w3.org/1999/02/22-rdf-syntax-ns#"
   xmlns:svg="http://www.w3.org/2000/svg"
   xmlns="http://www.w3.org/2000/svg"
   id="svg1340"
   xml:space="preserve"
   enable-background="new 0 0 698 197"
   viewBox="0 0 203.696 194.804"
   height="194.804"
   width="203.696"
   y="0px"
   x="0px"
   version="1.1"><metadata
     id="metadata1346"><rdf:RDF><cc:Work
         rdf:about=""><dc:format>image/svg+xml</dc:format><dc:type
           rdf:resource="http://purl.org/dc/dcmitype/StillImage" /><dc:title></dc:title></cc:Work></rdf:RDF></metadata><defs
     id="defs1344" /><g
     transform="translate(-30.413,-1.098)"
     style="display:none"
     display="none"
     id="Layer_1"><g
       style="display:inline"
       id="g1138"
       display="inline"><path
         style="fill:#00adee"
         id="path1126"
         d="m 439.803,-336 h 24.494 v 8.123 h -8.248 v 23.002 h -8.165 v -23.002 h -8.082 V -336 Z" /><path
         style="fill:#00adee"
         id="path1128"
         d="m 483.236,-304.874 -4.807,-8.248 h -5.057 v 8.248 h -8.165 v -31.084 h 13.097 c 6.3,0 11.439,5.14 11.439,11.439 0,3.315 -1.451,6.3 -3.689,8.372 l 6.589,11.273 z m -9.865,-15.294 h 5.057 c 2.487,0 4.476,-1.948 4.476,-4.435 0,-2.487 -1.989,-4.476 -4.476,-4.476 h -5.057 z" /><path
         style="fill:#00adee"
         id="path1130"
         d="m 491.896,-335.959 h 8.165 v 31.084 h -8.165 z" /><path
         style="fill:#00adee"
         id="path1132"
         d="m 501.592,-335.959 h 13.097 c 6.299,0 11.439,5.14 11.439,11.439 0,6.258 -5.098,11.397 -11.273,11.397 h -5.098 v 8.248 h -8.165 z m 8.165,15.791 h 5.056 c 2.487,0 4.476,-1.948 4.476,-4.435 0,-2.487 -1.989,-4.476 -4.476,-4.476 h -5.056 z" /><path
         style="fill:none;stroke:#00adee;stroke-miterlimit:10"
         id="path1134"
         d="m 527.284,-304.874 v -31.084 h 13.719 c 4.973,0 9.2,4.269 9.2,9.242 0,2.114 -0.788,4.062 -1.989,5.595 2.114,1.699 3.523,4.31 3.523,7.129 0,4.932 -4.186,9.118 -9.118,9.118 z m 12.101,-18.941 c 1.492,0 2.694,-1.202 2.694,-2.694 0,-1.492 -1.202,-2.694 -2.694,-2.694 h -3.937 v 5.388 z m 1.534,12.226 c 1.492,0 2.694,-1.202 2.694,-2.694 0,-1.492 -1.285,-2.694 -2.694,-2.694 h -5.471 v 5.388 z"
         stroke-miterlimit="10" /><path
         style="fill:none;stroke:#00adee;stroke-miterlimit:10"
         id="path1136"
         d="m 567.36,-316.313 v 11.439 h -8.082 v -11.439 l -11.356,-19.645 h 9.408 l 5.968,10.362 6.01,-10.362 h 9.408 z"
         stroke-miterlimit="10" /></g><g
       style="display:inline"
       id="g1148"
       display="inline"><g
         id="g1142"><path
           style="fill:#00adee"
           id="path1140"
           d="m 398.703,-348.102 v 25.947 2 h 2 11.778 v 21.481 h -25.555 -2 v 2 11.974 h -21.124 v -25.947 -2 h -2 -11.778 v -21.481 h 25.555 2 v -2 -11.974 h 21.124 m 2,-2 h -25.124 v 13.974 h -27.555 v 0 25.481 h 13.778 v 27.947 0 h 25.124 v -13.974 h 27.555 v 0 -25.481 h -13.778 v -27.947 z" /></g><g
         id="g1146"><path
           style="fill:#ec297b"
           id="path1144"
           d="m 408.198,-361.972 v 25.904 2 h 2 11.869 v 21.442 h -25.738 -2 v 2 11.952 h -21.291 v -25.904 -2 h -2 -11.869 v -21.442 h 25.738 2 v -2 -11.952 h 21.291 m 2,-2 h -25.291 v 13.952 h -27.738 v 0 25.442 h 13.869 v 27.904 0 h 25.291 v -13.952 h 27.738 v 0 -25.442 h -13.869 v -27.904 z" /></g></g></g><g
     transform="translate(-30.413,-1.098)"
     id="Layer_2"><g
       id="g1187"><g
         id="g1159"><g
           id="g1153"><path
             style="fill:#00adee"
             id="path1151"
             d="M 150.985,172.169 H 30.413 V 48.46 H 78.208 V 1.098 H 198.78 V 124.807 H 150.985 Z M 35.716,166.866 h 109.966 v -47.362 h 47.795 V 6.401 H 83.511 V 53.763 H 35.716 Z" /></g><g
           id="g1157"><path
             style="fill:#ec297b"
             id="path1155"
             d="M 185.994,195.902 H 64.645 V 72.193 h 48.117 V 24.831 H 234.109 V 148.54 h -48.116 v 47.362 z M 69.948,190.599 h 110.743 v -47.362 h 48.116 V 30.134 H 118.065 V 77.496 H 69.948 Z" /></g></g><g
         id="g1185"><g
           id="g1163" /><g
           id="g1167" /><g
           id="g1171" /><g
           id="g1175" /><g
           id="g1179" /><g
           id="g1183" /></g></g></g><g
     transform="translate(-30.413,-1.098)"
     style="display:none"
     display="none"
     id="Layer_3"><g
       style="display:inline"
       id="g1230"
       display="inline"><g
         id="g1202"><g
           id="g1194"><g
             id="g1192"><path
               style="fill:#00adee"
               id="path1190"
               d="M 130.524,186.81 H -0.396 V 58.936 H 51.396 V 10.19 H 182.318 V 138.065 H 130.525 V 186.81 Z M 5.613,180.801 h 118.901 v -48.746 h 51.793 V 16.199 H 57.405 V 64.945 H 5.613 Z" /></g></g><g
           id="g1200"><g
             id="g1198"><path
               style="fill:#ec297b"
               id="path1196"
               d="M 182.318,186.81 H 51.396 V 58.936 h 51.793 V 10.19 H 234.11 V 138.065 H 182.318 Z M 57.405,180.801 H 176.308 V 132.055 H 228.1 V 16.199 H 109.199 V 64.945 H 57.405 Z" /></g></g></g><g
         id="g1228"><g
           id="g1206"><path
             style="fill:#00adee"
             id="path1204"
             d="m 278.387,51.737 h 73.601 v 24.409 h -24.783 v 69.117 H 302.671 V 76.146 h -24.284 z" /></g><g
           id="g1210"><path
             style="fill:#00adee"
             id="path1208"
             d="m 408.894,145.264 -14.446,-24.783 h -15.194 v 24.783 H 354.72 V 51.862 h 39.354 c 18.93,0 34.372,15.443 34.372,34.372 0,9.962 -4.36,18.929 -11.085,25.155 l 19.8,33.874 h -28.267 z m -29.64,-45.953 h 15.194 c 7.472,0 13.449,-5.854 13.449,-13.326 0,-7.472 -5.977,-13.45 -13.449,-13.45 h -15.194 z" /></g><g
           id="g1214"><path
             style="fill:#00adee"
             id="path1212"
             d="m 434.915,51.862 h 24.534 v 93.402 h -24.534 z" /></g><g
           id="g1218"><path
             style="fill:#00adee"
             id="path1216"
             d="m 464.052,51.862 h 39.353 c 18.928,0 34.372,15.443 34.372,34.372 0,18.805 -15.32,34.247 -33.874,34.247 h -15.318 v 24.783 H 464.051 V 51.862 Z m 24.533,47.449 h 15.193 c 7.472,0 13.449,-5.854 13.449,-13.326 0,-7.472 -5.977,-13.45 -13.449,-13.45 h -15.193 z" /></g><g
           id="g1222"><path
             style="fill:#00adee"
             id="path1220"
             d="m 587.327,146.766 h -47.58 V 50.36 h 42.723 c 15.8,0 29.149,13.404 29.149,29.273 0,5.795 -1.919,11.629 -5.43,16.576 6.31,5.59 10.039,13.583 10.039,21.656 0,15.667 -13.236,28.901 -28.901,28.901 z m -44.575,-3.004 h 44.575 c 14.037,0 25.896,-11.858 25.896,-25.896 0,-7.635 -3.747,-15.203 -10.025,-20.25 l -1.156,-0.93 0.916,-1.168 c 3.649,-4.654 5.657,-10.297 5.657,-15.884 0,-14.238 -11.972,-26.269 -26.144,-26.269 h -39.718 v 90.397 z m 39.471,-17.17 H 564.28 v -19.197 h 17.942 c 5.203,0 9.597,4.396 9.597,9.598 0.001,5.295 -4.304,9.599 -9.596,9.599 z m -14.938,-3.004 h 14.938 c 3.634,0 6.592,-2.958 6.592,-6.594 0,-3.512 -3.081,-6.594 -6.592,-6.594 H 567.285 Z M 577.613,89.854 H 564.28 V 70.657 h 13.332 c 5.292,0 9.597,4.305 9.597,9.598 0,5.293 -4.304,9.599 -9.596,9.599 z m -10.328,-3.005 h 10.328 c 3.634,0 6.592,-2.958 6.592,-6.594 0,-3.636 -2.958,-6.594 -6.592,-6.594 h -10.328 z" /></g><g
           id="g1226"><path
             style="fill:#00adee"
             id="path1224"
             d="m 663.173,146.766 h -27.29 V 111.295 L 600.659,50.36 H 632.4 l 17.069,29.634 17.188,-29.634 h 31.738 l -35.223,60.935 v 35.471 z m -24.285,-3.004 h 21.28 v -33.27 L 693.187,53.365 H 668.388 L 649.46,85.998 630.662,53.365 h -24.796 l 33.021,57.127 v 33.27 z" /></g></g></g></g><g
     transform="translate(-30.413,-1.098)"
     style="display:none"
     display="none"
     id="Layer_4"><g
       style="display:inline"
       id="g1337"
       display="inline"><g
         id="g1271"><g
           id="g1237"><g
             id="g1235"><path
               style="fill:#00adee"
               id="path1233"
               d="M 132.133,187.959 H -0.473 V 58.441 H 132.132 V 187.959 Z M 5.54,181.947 H 126.12 V 64.454 H 5.54 Z" /></g></g><g
           id="g1243"><g
             id="g1241"><path
               style="fill:#00adee"
               id="path1239"
               d="M 184.622,138.556 H 52.016 V 9.041 H 184.621 V 138.556 Z M 58.029,132.543 h 120.58 V 15.053 H 58.029 Z" /></g></g><g
           id="g1251"><g
             id="g1249"><g
               id="g1247"><rect
                 style="fill:#00adee"
                 id="rect1245"
                 height="72.080002"
                 width="6.0149999"
                 transform="matrix(0.6853,0.7283,-0.7283,0.6853,34.9604,-8.9506)"
                 y="-0.063000001"
                 x="24.829" /></g></g></g><g
           id="g1257"><g
             id="g1255"><rect
               style="fill:#00adee"
               id="rect1253"
               height="72.080002"
               width="6.0149999"
               transform="matrix(0.6853,0.7283,-0.7283,0.6853,75.3628,-102.5296)"
               y="-0.104"
               x="153.30901" /></g></g><g
           id="g1263"><g
             id="g1261"><rect
               style="fill:#00adee"
               id="rect1259"
               height="72.082001"
               width="6.0149999"
               transform="matrix(0.6853,0.7283,-0.7283,0.6853,125.7607,29.4726)"
               y="124.211"
               x="25.771" /></g></g><g
           id="g1269"><g
             id="g1267"><rect
               style="fill:#00adee"
               id="rect1265"
               height="72.082001"
               width="6.0149999"
               transform="matrix(0.6853,0.7283,-0.7283,0.6853,166.4908,-63.1512)"
               y="125.027"
               x="153.30901" /></g></g></g><g
         id="g1297"><g
           id="g1275"><path
             style="fill:#00adee"
             id="path1273"
             d="m 277.83,51.714 h 73.636 v 24.421 h -24.795 v 69.151 H 302.126 V 76.135 H 277.83 Z" /></g><g
           id="g1279"><path
             style="fill:#00adee"
             id="path1277"
             d="M 408.399,145.285 393.946,120.49 h -15.201 v 24.795 H 354.2 V 51.838 h 39.373 c 18.939,0 34.389,15.451 34.389,34.389 0,9.967 -4.362,18.938 -11.09,25.167 l 19.809,33.89 H 408.399 Z M 378.745,99.31 h 15.201 c 7.476,0 13.456,-5.856 13.456,-13.332 0,-7.476 -5.98,-13.457 -13.456,-13.457 h -15.201 z" /></g><g
           id="g1283"><path
             style="fill:#00adee"
             id="path1281"
             d="m 434.433,51.838 h 24.545 v 93.447 h -24.545 z" /></g><g
           id="g1287"><path
             style="fill:#00adee"
             id="path1285"
             d="m 463.583,51.838 h 39.372 c 18.937,0 34.389,15.451 34.389,34.389 0,18.814 -15.327,34.263 -33.89,34.263 h -15.325 v 24.795 H 463.584 V 51.838 Z m 24.545,47.472 h 15.2 c 7.476,0 13.456,-5.856 13.456,-13.332 0,-7.476 -5.98,-13.457 -13.456,-13.457 h -15.2 z" /></g><g
           id="g1291"><path
             style="fill:#00adee"
             id="path1289"
             d="M 586.918,146.788 H 539.316 V 50.335 h 42.744 c 15.808,0 29.163,13.411 29.163,29.287 0,5.798 -1.92,11.635 -5.433,16.587 6.313,5.593 10.043,13.587 10.043,21.663 -10e-4,15.675 -13.242,28.916 -28.915,28.916 z m -44.596,-3.007 h 44.596 c 14.043,0 25.908,-11.864 25.908,-25.908 0,-7.636 -3.749,-15.207 -10.03,-20.257 l -1.157,-0.931 0.916,-1.168 c 3.651,-4.659 5.66,-10.305 5.66,-15.894 0,-14.244 -11.978,-26.281 -26.156,-26.281 h -39.737 z m 39.489,-17.177 H 563.86 v -19.203 h 17.951 c 5.205,0 9.602,4.395 9.602,9.6 -10e-4,5.296 -4.307,9.603 -9.602,9.603 z m -14.945,-3.006 h 14.945 c 3.636,0 6.595,-2.959 6.595,-6.597 0,-3.511 -3.083,-6.594 -6.595,-6.594 h -14.945 z m 10.333,-33.75 H 563.86 V 70.645 h 13.339 c 5.295,0 9.602,4.307 9.602,9.6 -0.001,5.296 -4.307,9.603 -9.602,9.603 z m -10.333,-3.006 h 10.333 c 3.636,0 6.595,-2.959 6.595,-6.597 0,-3.635 -2.959,-6.594 -6.595,-6.594 h -10.333 z" /></g><g
           id="g1295"><path
             style="fill:#00adee"
             id="path1293"
             d="M 662.801,146.788 H 635.498 V 111.3 L 600.257,50.335 h 31.756 l 17.078,29.649 17.196,-29.649 h 31.754 l -35.24,60.965 z m -24.297,-3.007 h 21.29 v -33.286 l 33.035,-57.154 h -24.81 L 649.082,85.99 630.275,53.341 h -24.807 l 33.036,57.154 z" /></g></g><g
         id="g1335"><g
           id="g1303"><g
             id="g1301"><rect
               style="fill:#ec297b"
               id="rect1299"
               height="72.081001"
               width="6.0149999"
               transform="matrix(0.6853,0.7283,-0.7283,0.6853,51.4331,-47.1524)"
               y="-0.104"
               x="77.267998" /></g></g><g
           id="g1309"><g
             id="g1307"><rect
               style="fill:#ec297b"
               id="rect1305"
               height="72.081001"
               width="6.0149999"
               transform="matrix(0.6853,0.7283,-0.7283,0.6853,92.1743,-139.812)"
               y="0.70700002"
               x="204.853" /></g></g><g
           id="g1315"><g
             id="g1313"><rect
               style="fill:#ec297b"
               id="rect1311"
               height="72.083"
               width="6.0149999"
               transform="matrix(0.6853,0.7283,-0.7283,0.6853,142.279,-8.7535)"
               y="124.21"
               x="78.261002" /></g></g><g
           id="g1321"><g
             id="g1319"><rect
               style="fill:#ec297b"
               id="rect1317"
               height="72.083"
               width="6.0149999"
               transform="matrix(0.6853,0.7283,-0.7283,0.6853,183.0092,-101.3772)"
               y="125.026"
               x="205.799" /></g></g><g
           id="g1327"><g
             id="g1325"><path
               style="fill:#ec297b"
               id="path1323"
               d="M 184.622,187.959 H 52.016 V 58.441 H 184.621 V 187.959 Z M 58.029,181.947 h 120.58 V 64.454 H 58.029 Z" /></g></g><g
           id="g1333"><g
             id="g1331"><path
               style="fill:#ec297b"
               id="path1329"
               d="M 237.112,138.556 H 104.507 V 9.041 H 237.112 Z M 110.519,132.543 H 231.1 V 15.053 H 110.52 v 117.49 z" /></g></g></g></g></g></svg>