<?xml version="1.0" standalone="no"?>
<!DOCTYPE svg PUBLIC "-//W3C//DTD SVG 20010904//EN"
 "http://www.w3.org/TR/2001/REC-SVG-20010904/DTD/svg10.dtd">
<svg version="1.0" xmlns="http://www.w3.org/2000/svg"
 width="1549.000000pt" height="1549.000000pt" viewBox="0 0 1549.000000 1549.000000"
 preserveAspectRatio="xMidYMid meet">
<metadata>
Created by potrace 1.11, written by Peter Selinger 2001-2013
</metadata>
<g transform="translate(0.000000,1549.000000) scale(0.100000,-0.100000)"
fill="#000000" stroke="none">
<path d="M3378 13537 c-25 -23 -106 -99 -180 -169 -73 -69 -151 -143 -173
-163 -22 -21 -74 -70 -115 -109 -42 -39 -140 -132 -219 -206 -79 -74 -161
-151 -181 -170 -359 -337 -472 -444 -510 -479 -39 -37 -279 -263 -345 -326
-23 -22 -102 -96 -175 -165 -73 -69 -152 -143 -175 -165 -24 -22 -98 -92 -165
-155 -68 -63 -144 -135 -170 -160 -56 -53 -268 -252 -325 -305 -22 -21 -101
-95 -175 -165 -74 -71 -156 -148 -182 -171 -25 -24 -100 -95 -167 -158 l-121
-114 0 -4223 0 -4224 6034 0 6035 0 38 36 c21 20 92 86 157 148 65 61 140 131
166 156 40 38 204 193 329 309 51 47 295 278 346 326 40 39 260 245 334 314
20 18 79 74 131 124 52 49 129 122 170 161 122 115 351 331 400 376 226 212
290 272 340 320 31 30 88 84 126 119 38 35 134 125 213 200 169 159 158 149
337 317 76 72 155 146 174 164 19 17 63 59 98 92 l62 60 0 4224 0 4224 -6032
0 -6033 0 -47 -43z m3032 -355 c0 -6 -57 -61 -238 -230 -57 -54 -135 -126
-172 -162 -37 -36 -114 -108 -171 -162 -57 -53 -129 -120 -160 -150 -55 -52
-285 -269 -364 -342 -22 -21 -98 -92 -169 -159 -187 -178 -212 -201 -342 -322
-64 -60 -136 -128 -159 -150 -101 -95 -304 -286 -345 -325 -25 -23 -108 -101
-185 -174 -77 -73 -171 -163 -210 -199 -38 -36 -72 -64 -75 -62 -4 2 -5 2387
-1 2431 1 8 363 11 1296 11 712 0 1295 -2 1295 -5z m4960 -1 c0 -2 -18 -20
-39 -40 -21 -20 -75 -70 -118 -111 -44 -41 -140 -131 -213 -200 -73 -69 -160
-151 -193 -182 -32 -32 -60 -58 -61 -58 -1 0 -34 -30 -73 -67 -76 -74 -306
-290 -363 -343 -19 -18 -98 -92 -175 -165 -77 -73 -156 -147 -175 -165 -28
-26 -203 -190 -330 -310 -91 -85 -316 -297 -374 -351 -37 -35 -89 -84 -115
-109 -40 -38 -170 -161 -361 -340 -89 -83 -325 -306 -363 -342 l-39 -38 -568
0 c-533 0 -568 1 -571 18 -3 14 -3 2739 0 2792 1 13 237 15 2066 15 1136 0
2065 -2 2065 -4z m3410 -1 c0 -4 -17 -23 -37 -43 -94 -89 -191 -180 -299 -282
-156 -146 -279 -262 -324 -305 -32 -31 -213 -201 -325 -305 -87 -82 -290 -273
-339 -320 -29 -27 -108 -102 -175 -165 -142 -133 -181 -170 -362 -341 -74 -70
-150 -141 -169 -159 -39 -36 -292 -274 -354 -333 -22 -21 -89 -84 -149 -140
-60 -56 -124 -117 -142 -134 -21 -21 -34 -28 -37 -20 -3 10 -2 2485 1 2538 1
15 118 16 1356 16 745 0 1355 -3 1355 -7z m-11359 -1485 c0 -730 -1 -1329 -4
-1331 -2 -2 -639 -3 -1416 -2 -1412 3 -1412 3 -1393 23 19 20 50 49 317 300
82 77 165 156 186 175 20 19 89 85 154 145 65 61 139 130 164 155 42 40 208
196 341 320 25 23 106 100 180 170 74 70 151 142 170 160 44 41 290 272 345
325 47 44 136 129 335 315 73 69 154 145 180 170 26 25 100 95 165 155 65 61
152 142 194 182 42 39 77 70 79 68 2 -1 3 -600 3 -1330z m3423 3 l0 -1333
-1417 -3 c-779 -1 -1417 1 -1417 4 0 4 22 28 48 53 70 66 310 292 341 320 21
20 219 206 371 351 21 19 68 64 106 99 38 35 129 121 203 190 73 69 155 146
181 171 240 225 299 281 340 320 26 25 105 99 175 165 70 66 144 136 165 155
44 42 309 291 399 375 35 33 85 80 111 105 26 25 109 104 185 175 76 72 151
142 167 158 16 15 32 27 36 27 4 0 7 -600 6 -1332z m4830 -85 c0 -684 -3
-1245 -6 -1249 -5 -4 -2127 -8 -2638 -4 l-75 0 80 76 c146 139 187 178 545
514 20 19 92 87 159 150 68 63 151 141 184 173 34 33 109 103 167 157 58 54
130 122 161 152 51 48 240 226 337 317 54 50 293 276 356 335 28 27 100 94
159 150 60 55 134 126 166 156 32 30 118 111 191 180 73 69 149 141 169 161
l36 35 5 -30 c3 -17 5 -590 4 -1273z m3424 -2370 c0 -2023 -1 -3687 -3 -3698
-4 -20 -12 -20 -1512 -20 l-1508 1 -3 2275 -2 2276 132 125 c73 69 149 140
168 158 32 30 235 221 354 333 28 27 104 99 170 160 65 62 137 130 161 152 23
22 99 94 170 160 70 66 145 136 165 155 20 19 97 91 170 160 73 69 156 147
184 173 28 27 96 91 151 142 55 52 130 122 167 157 75 72 307 290 348 328 15
14 92 86 171 161 79 75 182 172 228 215 47 43 128 121 180 171 53 51 99 93
102 93 3 0 6 -1655 7 -3677z m-11680 -1554 l2 -2275 -122 -114 c-66 -63 -138
-131 -158 -150 -20 -19 -97 -91 -170 -160 -74 -69 -157 -147 -186 -175 -53
-51 -253 -239 -334 -315 -25 -23 -105 -99 -179 -168 -74 -70 -146 -138 -161
-152 -15 -14 -90 -84 -166 -156 -76 -72 -155 -147 -175 -165 -81 -76 -295
-277 -338 -318 -25 -24 -102 -96 -170 -160 -68 -64 -143 -134 -166 -156 -161
-152 -340 -320 -398 -375 -90 -84 -138 -130 -224 -212 -39 -38 -73 -68 -76
-68 -2 0 -5 1661 -5 3690 0 3045 3 3692 13 3698 8 4 688 7 1512 6 l1498 0 3
-2275z m3417 2272 c10 -1 15 -4430 5 -4432 -3 -1 -683 -2 -1513 -3 l-1507 -1
0 135 c0 115 0 3996 0 4225 l0 80 1503 -2 c826 0 1507 -1 1512 -2z m1410 -3
c7 -7 7 -4419 0 -4426 -8 -9 -988 -9 -1000 -1 -7 5 -9 751 -8 2211 1 1211 2
2208 2 2213 1 11 995 14 1006 3z m3423 -2213 l-3 -2219 -1507 -1 c-998 0
-1508 3 -1509 10 -1 6 -2 1002 -2 2215 -2 1720 1 2206 10 2210 7 3 687 5 1513
5 l1500 0 -2 -2220z m-7764 -2618 c7 7 184 5 196 -2 6 -3 10 -1 10 5 0 7 8 9
23 4 12 -4 29 -7 37 -6 8 1 56 2 105 2 106 -1 96 -1 208 0 48 1 92 -2 97 -5 6
-3 10 -1 10 5 0 7 8 9 23 4 12 -4 29 -7 37 -6 8 1 56 2 105 2 106 -1 96 -1
208 0 48 1 92 -2 97 -5 6 -3 10 -1 10 5 0 7 8 9 23 4 12 -4 29 -7 37 -6 8 1
56 2 105 2 106 -1 96 -1 208 0 48 1 92 -2 97 -5 6 -3 10 -1 10 5 0 7 8 9 23 4
12 -4 29 -7 37 -6 8 1 56 2 105 2 106 -1 96 -1 208 0 48 1 92 -2 97 -5 6 -3
10 -1 10 5 0 7 8 9 23 4 12 -4 29 -7 37 -6 12 1 155 2 205 1 6 0 43 1 83 2 40
1 75 -1 78 -4 3 -3 19 -1 35 3 50 15 42 -7 -27 -72 -37 -35 -88 -83 -114 -108
-26 -25 -98 -92 -159 -150 -62 -58 -140 -131 -174 -163 -34 -32 -116 -109
-181 -170 -66 -62 -143 -134 -172 -162 -28 -27 -100 -95 -159 -150 -59 -55
-130 -122 -159 -150 -29 -27 -113 -106 -186 -175 -73 -69 -151 -143 -175 -165
-23 -22 -95 -89 -159 -150 -65 -60 -146 -136 -179 -168 -142 -134 -210 -198
-326 -307 -67 -63 -146 -137 -175 -165 -222 -210 -316 -297 -323 -298 -4 -1
-8 571 -8 1271 0 1389 -4 1299 56 1282 15 -5 30 -6 33 -3z m8296 3 c14 0 67 0
118 0 51 1 97 -2 102 -5 6 -3 10 -1 10 5 0 7 8 9 23 4 12 -4 29 -7 37 -6 8 1
56 2 105 2 106 -1 96 -1 208 0 48 1 92 -2 97 -5 6 -3 10 -1 10 5 0 7 8 9 23 4
12 -4 29 -7 37 -6 8 1 56 2 105 2 106 -1 96 -1 208 0 48 1 92 -2 97 -5 6 -3
10 -1 10 5 0 7 8 9 23 4 12 -4 29 -7 37 -6 8 1 56 2 105 2 106 -1 96 -1 208 0
48 1 92 -2 97 -5 6 -3 10 -1 10 5 0 7 8 9 23 4 12 -4 29 -7 37 -6 8 1 56 2
105 2 106 -1 96 -1 208 0 48 1 92 -2 97 -5 6 -3 10 -1 10 5 0 7 8 9 23 4 12
-4 29 -7 37 -6 12 1 167 2 205 1 6 0 40 1 78 2 37 1 70 0 73 -3 3 -3 21 -2 40
2 20 5 48 5 64 0 16 -4 30 -7 32 -6 5 2 -97 -96 -172 -166 -36 -33 -130 -122
-209 -197 -202 -191 -203 -192 -352 -331 -292 -275 -256 -241 -494 -465 -70
-66 -144 -136 -164 -155 -34 -31 -124 -116 -395 -371 -43 -41 -104 -99 -136
-129 -32 -30 -109 -102 -171 -160 -62 -58 -131 -123 -155 -145 -95 -91 -334
-316 -403 -381 -41 -38 -97 -90 -124 -116 -28 -27 -53 -48 -56 -48 -5 0 -6
2513 -2 2642 1 29 13 34 70 31 20 -1 47 -2 61 -3z m-3950 -49 c4 -1158 4
-2771 0 -2772 -3 -1 -933 -2 -2068 -3 l-2063 -1 88 85 c49 47 140 132 202 190
62 58 138 130 170 160 104 98 480 452 536 504 38 35 218 206 324 306 26 25
105 99 176 165 229 215 471 443 525 495 20 19 92 87 160 150 68 63 149 140
181 170 31 30 112 107 180 170 135 126 259 243 324 305 23 22 62 59 87 82 l46
41 566 0 566 0 0 -47z m3187 -1 c-28 -26 -75 -70 -103 -96 -50 -48 -289 -274
-369 -349 -22 -20 -100 -94 -174 -163 -176 -167 -186 -176 -342 -322 -73 -69
-149 -141 -169 -160 -20 -19 -94 -89 -165 -155 -70 -66 -149 -140 -175 -165
-26 -25 -98 -92 -160 -150 -61 -58 -131 -123 -154 -145 -23 -22 -100 -95 -171
-162 -72 -66 -158 -147 -192 -180 -34 -32 -116 -110 -184 -173 -67 -63 -146
-137 -175 -165 -98 -94 -246 -230 -252 -232 -5 -2 -8 2598 -3 2653 1 9 361 12
1421 12 l1420 0 -53 -48z m-8016 -1397 c0 -648 0 -1224 -1 -1279 l0 -102
-1360 0 c-872 0 -1358 4 -1354 10 3 5 25 27 48 48 22 21 68 65 102 97 34 32
116 110 184 173 67 63 145 137 174 164 28 26 105 98 170 160 66 61 141 132
168 158 27 26 106 100 175 165 70 65 150 141 179 168 29 28 97 91 151 142 54
50 126 117 159 150 58 55 247 233 364 343 30 28 87 81 126 118 121 115 347
328 384 362 117 108 277 259 298 283 14 15 27 25 29 23 3 -2 4 -535 4 -1183z
m8252 -150 c-1 -670 -2 -1221 -2 -1224 -1 -4 -586 -7 -1301 -7 l-1301 0 18 22
c10 11 25 26 33 32 8 7 38 34 66 61 93 89 339 320 374 353 19 18 98 92 175
165 77 73 158 149 180 170 22 20 92 86 155 145 63 60 135 127 160 150 78 73
312 293 355 335 23 22 95 90 160 150 64 61 141 133 170 160 55 52 270 255 341
322 22 21 100 94 174 163 73 69 155 146 183 173 28 26 53 47 56 47 3 0 5 -548
4 -1217z"/>
</g>
</svg>
