<?xml version="1.0" encoding="utf-8"?>
<!-- Generator: Adobe Illustrator 17.0.0, SVG Export Plug-In . SVG Version: 6.00 Build 0)  -->
<!DOCTYPE svg PUBLIC "-//W3C//DTD SVG 1.1//EN" "http://www.w3.org/Graphics/SVG/1.1/DTD/svg11.dtd">
<svg version="1.1" xmlns="http://www.w3.org/2000/svg" xmlns:xlink="http://www.w3.org/1999/xlink" x="0px" y="0px" width="698px"
	 height="197px" viewBox="0 0 698 197" enable-background="new 0 0 698 197" xml:space="preserve">
<g id="Layer_1" display="none">
	<g display="inline">
		<g>
			<g>
				<path fill="#00ADEE" d="M278.819,52.132h73.456v24.361h-24.734v68.982h-24.485V76.493h-24.237V52.132z"/>
			</g>
			<g>
				<path fill="#00ADEE" d="M409.069,145.474l-14.417-24.734h-15.164v24.734h-24.485V52.256h39.277
					c18.893,0,34.305,15.413,34.305,34.305c0,9.943-4.351,18.892-11.063,25.106l19.761,33.808H409.069z M379.487,99.612h15.164
					c7.457,0,13.423-5.842,13.423-13.299c0-7.457-5.965-13.424-13.423-13.424h-15.164V99.612z"/>
			</g>
			<g>
				<path fill="#00ADEE" d="M435.04,52.256h24.485v93.218H435.04V52.256z"/>
			</g>
			<g>
				<path fill="#00ADEE" d="M464.118,52.256h39.276c18.891,0,34.305,15.413,34.305,34.305c0,18.768-15.29,34.179-33.808,34.179
					h-15.288v24.734h-24.485V52.256z M488.604,99.612h15.163c7.457,0,13.423-5.842,13.423-13.299
					c0-7.457-5.965-13.424-13.423-13.424h-15.163V99.612z"/>
			</g>
			<g>
				<path fill="#00ADEE" d="M587.152,146.974h-47.488V50.757h42.641c15.768,0,29.09,13.379,29.09,29.216
					c0,5.785-1.915,11.606-5.418,16.544c6.299,5.58,10.019,13.557,10.019,21.615C615.996,133.766,602.788,146.974,587.152,146.974z
					 M542.663,143.975h44.489c14.011,0,25.845-11.835,25.845-25.844c0-7.619-3.74-15.173-10.004-20.21l-1.154-0.927l0.914-1.166
					c3.64-4.648,5.643-10.278,5.643-15.856c0-14.211-11.949-26.217-26.091-26.217h-39.642V143.975z M582.056,126.839H564.15v-19.158
					h17.906c5.192,0,9.579,4.386,9.579,9.578C591.635,122.542,587.339,126.839,582.056,126.839z M567.149,123.84h14.907
					c3.629,0,6.581-2.952,6.581-6.581c0-3.504-3.075-6.579-6.581-6.579h-14.907V123.84z M577.458,90.173H564.15V71.015h13.308
					c5.28,0,9.577,4.298,9.577,9.58S582.738,90.173,577.458,90.173z M567.149,87.174h10.309c3.626,0,6.578-2.952,6.578-6.579
					c0-3.629-2.952-6.581-6.578-6.581h-10.309V87.174z"/>
			</g>
			<g>
				<path fill="#00ADEE" d="M662.848,146.974h-27.233v-35.4l-35.155-60.817h31.676l17.039,29.578l17.153-29.578H698l-35.152,60.817
					V146.974z M638.613,143.975h21.235v-33.206l0.202-0.347l32.754-56.666h-24.75l-18.893,32.571l-18.761-32.571h-24.747
					l32.959,57.013V143.975z"/>
			</g>
		</g>
		<g>
			<g>
				<path fill="#00ADEE" d="M172.972,39.212v62.541v4.821h4.821h28.388l0,51.777h-61.595h-4.821v4.821v28.86l-50.915,0V129.49
					v-4.821h-4.821H55.641l0-51.777h61.595h4.821v-4.821v-28.86H172.972 M177.792,34.391h-60.556v33.681H50.82h0v61.418h33.208
					v67.361v0h60.556v-33.681H211h0v-61.418h-33.208V34.391L177.792,34.391L177.792,34.391z"/>
			</g>
			<g>
				<path fill="#EC297B" d="M195.859,5.783v62.436v4.821h4.821h28.609l0,51.681h-62.038h-4.821v4.821v28.808l-51.318,0V95.913
					v-4.821h-4.821H77.683l0-51.682h62.038h4.821v-4.821V5.783H195.859 M200.68,0.962h-60.959v33.628H72.863h0v61.323h33.429v67.257
					v0h60.959v-33.629h66.858h0V68.219H200.68V0.962L200.68,0.962L200.68,0.962z"/>
			</g>
		</g>
	</g>
</g>
<g id="Layer_2" display="none">
	<g display="inline">
		<g>
			<g>
				<path fill="#00ADEE" d="M150.985,172.169H30.413V48.46h47.795V1.098H198.78v123.709h-47.795V172.169z M35.716,166.866h109.966
					v-47.362h47.795V6.401H83.511v47.362H35.716V166.866z"/>
			</g>
			<g>
				<path fill="#EC297B" d="M185.994,195.902H64.645V72.193h48.117V24.831h121.347V148.54h-48.116V195.902z M69.948,190.599h110.743
					v-47.362h48.116V30.134H118.065v47.362H69.948V190.599z"/>
			</g>
		</g>
		<g>
			<g>
				<path fill="#00ADEE" d="M278.745,51.735h73.485v24.37h-24.744v69.008h-24.495V76.106h-24.246V51.735z"/>
			</g>
			<g>
				<path fill="#00ADEE" d="M409.045,145.114l-14.423-24.744h-15.17v24.744h-24.495V51.86h39.292
					c18.9,0,34.318,15.419,34.318,34.318c0,9.947-4.353,18.899-11.067,25.116l19.769,33.821H409.045z M379.452,99.234h15.17
					c7.46,0,13.428-5.844,13.428-13.305S402.082,72.5,394.622,72.5h-15.17V99.234z"/>
			</g>
			<g>
				<path fill="#00ADEE" d="M435.026,51.86h24.495v93.254h-24.495V51.86z"/>
			</g>
			<g>
				<path fill="#00ADEE" d="M464.116,51.86h39.291c18.898,0,34.318,15.419,34.318,34.318c0,18.775-15.296,34.193-33.821,34.193
					h-15.293v24.744h-24.495V51.86z M488.611,99.234h15.169c7.46,0,13.428-5.844,13.428-13.305S511.24,72.5,503.78,72.5h-15.169
					V99.234z"/>
			</g>
			<g>
				<path fill="#00ADEE" d="M587.197,146.614h-47.506V50.36h42.657c15.774,0,29.101,13.385,29.101,29.227
					c0,5.788-1.916,11.611-5.42,16.55c6.302,5.583,10.023,13.562,10.023,21.623C616.052,133.401,602.839,146.614,587.197,146.614z
					 M542.691,143.614h44.506c14.016,0,25.855-11.839,25.855-25.854c0-7.622-3.741-15.179-10.008-20.218l-1.154-0.927l0.914-1.166
					c3.642-4.65,5.646-10.282,5.646-15.862c0-14.217-11.953-26.227-26.101-26.227h-39.657V143.614z M582.099,126.472h-17.912
					v-19.165h17.912c5.194,0,9.583,4.387,9.583,9.582C591.682,122.173,587.384,126.472,582.099,126.472z M567.187,123.472h14.912
					c3.63,0,6.583-2.953,6.583-6.583c0-3.505-3.076-6.582-6.583-6.582h-14.912V123.472z M577.499,89.792h-13.313V70.627h13.313
					c5.282,0,9.58,4.299,9.58,9.583C587.08,85.494,582.782,89.792,577.499,89.792z M567.187,86.792h10.313
					c3.627,0,6.58-2.953,6.58-6.582c0-3.63-2.953-6.583-6.58-6.583h-10.313V86.792z"/>
			</g>
			<g>
				<path fill="#00ADEE" d="M662.922,146.614h-27.244v-35.413L600.51,50.36h31.688l17.045,29.588l17.16-29.588h31.685
					l-35.166,60.841V146.614z M638.678,143.614h21.244v-33.219l0.202-0.347L692.89,53.36h-24.759l-18.9,32.582L630.463,53.36
					h-24.756l32.971,57.035V143.614z"/>
			</g>
		</g>
	</g>
</g>
<g id="Layer_3" display="none">
	<g display="inline">
		<g>
			<g>
				<g>
					<path fill="#00ADEE" d="M130.524,186.81H-0.396V58.936h51.792V10.19h130.922v127.875h-51.793V186.81z M5.613,180.801h118.901
						v-48.746h51.793V16.199H57.405v48.746H5.613V180.801z"/>
				</g>
			</g>
			<g>
				<g>
					<path fill="#EC297B" d="M182.318,186.81H51.396V58.936h51.793V10.19h130.921v127.875h-51.792V186.81z M57.405,180.801h118.903
						v-48.746H228.1V16.199H109.199v48.746H57.405V180.801z"/>
				</g>
			</g>
		</g>
		<g>
			<g>
				<path fill="#00ADEE" d="M278.387,51.737h73.601v24.409h-24.783v69.117h-24.534V76.146h-24.284V51.737z"/>
			</g>
			<g>
				<path fill="#00ADEE" d="M408.894,145.264l-14.446-24.783h-15.194v24.783H354.72V51.862h39.354
					c18.93,0,34.372,15.443,34.372,34.372c0,9.962-4.36,18.929-11.085,25.155l19.8,33.874H408.894z M379.254,99.311h15.194
					c7.472,0,13.449-5.854,13.449-13.326c0-7.472-5.977-13.45-13.449-13.45h-15.194V99.311z"/>
			</g>
			<g>
				<path fill="#00ADEE" d="M434.915,51.862h24.534v93.402h-24.534V51.862z"/>
			</g>
			<g>
				<path fill="#00ADEE" d="M464.052,51.862h39.353c18.928,0,34.372,15.443,34.372,34.372c0,18.805-15.32,34.247-33.874,34.247
					h-15.318v24.783h-24.534V51.862z M488.585,99.311h15.193c7.472,0,13.449-5.854,13.449-13.326c0-7.472-5.977-13.45-13.449-13.45
					h-15.193V99.311z"/>
			</g>
			<g>
				<path fill="#00ADEE" d="M587.327,146.766h-47.58V50.36h42.723c15.8,0,29.149,13.404,29.149,29.273
					c0,5.795-1.919,11.629-5.43,16.576c6.31,5.59,10.039,13.583,10.039,21.656C616.228,133.532,602.992,146.766,587.327,146.766z
					 M542.752,143.762h44.575c14.037,0,25.896-11.858,25.896-25.896c0-7.635-3.747-15.203-10.025-20.25l-1.156-0.93l0.916-1.168
					c3.649-4.654,5.657-10.297,5.657-15.884c0-14.238-11.972-26.269-26.144-26.269h-39.718V143.762z M582.223,126.592H564.28
					v-19.197h17.942c5.203,0,9.597,4.396,9.597,9.598C591.82,122.288,587.515,126.592,582.223,126.592z M567.285,123.588h14.938
					c3.634,0,6.592-2.958,6.592-6.594c0-3.512-3.081-6.594-6.592-6.594h-14.938V123.588z M577.613,89.854H564.28V70.657h13.332
					c5.292,0,9.597,4.305,9.597,9.598S582.905,89.854,577.613,89.854z M567.285,86.849h10.328c3.634,0,6.592-2.958,6.592-6.594
					s-2.958-6.594-6.592-6.594h-10.328V86.849z"/>
			</g>
			<g>
				<path fill="#00ADEE" d="M663.173,146.766h-27.29v-35.471L600.659,50.36h31.741l17.069,29.634l17.188-29.634h31.738
					l-35.223,60.935V146.766z M638.888,143.762h21.28v-33.27l33.019-57.127h-24.799l-18.928,32.633l-18.798-32.633h-24.796
					l33.021,57.127V143.762z"/>
			</g>
		</g>
	</g>
</g>
<g id="Layer_4">
	<g>
		<g>
			<g>
				<g>
					<path fill="#00ADEE" d="M132.133,187.959H-0.473V58.441h132.605V187.959z M5.54,181.947h120.58V64.454H5.54V181.947z"/>
				</g>
			</g>
			<g>
				<g>
					<path fill="#00ADEE" d="M184.622,138.556H52.016V9.041h132.605V138.556z M58.029,132.543h120.58V15.053H58.029V132.543z"/>
				</g>
			</g>
			<g>
				<g>
					<g>
						
							<rect x="24.829" y="-0.063" transform="matrix(0.6853 0.7283 -0.7283 0.6853 34.9604 -8.9506)" fill="#00ADEE" width="6.015" height="72.08"/>
					</g>
				</g>
			</g>
			<g>
				<g>
					
						<rect x="153.309" y="-0.104" transform="matrix(0.6853 0.7283 -0.7283 0.6853 75.3628 -102.5296)" fill="#00ADEE" width="6.015" height="72.08"/>
				</g>
			</g>
			<g>
				<g>
					
						<rect x="25.771" y="124.211" transform="matrix(0.6853 0.7283 -0.7283 0.6853 125.7607 29.4726)" fill="#00ADEE" width="6.015" height="72.082"/>
				</g>
			</g>
			<g>
				<g>
					
						<rect x="153.309" y="125.027" transform="matrix(0.6853 0.7283 -0.7283 0.6853 166.4908 -63.1512)" fill="#00ADEE" width="6.015" height="72.082"/>
				</g>
			</g>
		</g>
		<g>
			<g>
				<path fill="#00ADEE" d="M277.83,51.714h73.636v24.421h-24.795v69.151h-24.545V76.135H277.83V51.714z"/>
			</g>
			<g>
				<path fill="#00ADEE" d="M408.399,145.285l-14.453-24.795h-15.201v24.795h-24.545V51.838h39.373
					c18.939,0,34.389,15.451,34.389,34.389c0,9.967-4.362,18.938-11.09,25.167l19.809,33.89H408.399z M378.745,99.31h15.201
					c7.476,0,13.456-5.856,13.456-13.332s-5.98-13.457-13.456-13.457h-15.201V99.31z"/>
			</g>
			<g>
				<path fill="#00ADEE" d="M434.433,51.838h24.545v93.447h-24.545V51.838z"/>
			</g>
			<g>
				<path fill="#00ADEE" d="M463.583,51.838h39.372c18.937,0,34.389,15.451,34.389,34.389c0,18.814-15.327,34.263-33.89,34.263
					h-15.325v24.795h-24.545V51.838z M488.128,99.31h15.2c7.476,0,13.456-5.856,13.456-13.332s-5.98-13.457-13.456-13.457h-15.2
					V99.31z"/>
			</g>
			<g>
				<path fill="#00ADEE" d="M586.918,146.788h-47.602V50.335h42.744c15.808,0,29.163,13.411,29.163,29.287
					c0,5.798-1.92,11.635-5.433,16.587c6.313,5.593,10.043,13.587,10.043,21.663C615.832,133.547,602.591,146.788,586.918,146.788z
					 M542.322,143.781h44.596c14.043,0,25.908-11.864,25.908-25.908c0-7.636-3.749-15.207-10.03-20.257l-1.157-0.931l0.916-1.168
					c3.651-4.659,5.66-10.305,5.66-15.894c0-14.244-11.978-26.281-26.156-26.281h-39.737V143.781z M581.811,126.604H563.86v-19.203
					h17.951c5.205,0,9.602,4.395,9.602,9.6C591.412,122.297,587.106,126.604,581.811,126.604z M566.866,123.598h14.945
					c3.636,0,6.595-2.959,6.595-6.597c0-3.511-3.083-6.594-6.595-6.594h-14.945V123.598z M577.199,89.848H563.86V70.645h13.339
					c5.295,0,9.602,4.307,9.602,9.6C586.8,85.541,582.494,89.848,577.199,89.848z M566.866,86.842h10.333
					c3.636,0,6.595-2.959,6.595-6.597c0-3.635-2.959-6.594-6.595-6.594h-10.333V86.842z"/>
			</g>
			<g>
				<path fill="#00ADEE" d="M662.801,146.788h-27.303V111.3l-35.241-60.965h31.756l17.078,29.649l17.196-29.649h31.754
					l-35.24,60.965V146.788z M638.504,143.781h21.29v-33.286l33.035-57.154h-24.81L649.082,85.99l-18.807-32.649h-24.807
					l33.036,57.154V143.781z"/>
			</g>
		</g>
		<g>
			<g>
				<g>
					
						<rect x="77.268" y="-0.104" transform="matrix(0.6853 0.7283 -0.7283 0.6853 51.4331 -47.1524)" fill="#EC297B" width="6.015" height="72.081"/>
				</g>
			</g>
			<g>
				<g>
					
						<rect x="204.853" y="0.707" transform="matrix(0.6853 0.7283 -0.7283 0.6853 92.1743 -139.812)" fill="#EC297B" width="6.015" height="72.081"/>
				</g>
			</g>
			<g>
				<g>
					
						<rect x="78.261" y="124.21" transform="matrix(0.6853 0.7283 -0.7283 0.6853 142.279 -8.7535)" fill="#EC297B" width="6.015" height="72.083"/>
				</g>
			</g>
			<g>
				<g>
					
						<rect x="205.799" y="125.026" transform="matrix(0.6853 0.7283 -0.7283 0.6853 183.0092 -101.3772)" fill="#EC297B" width="6.015" height="72.083"/>
				</g>
			</g>
			<g>
				<g>
					<path fill="#EC297B" d="M184.622,187.959H52.016V58.441h132.605V187.959z M58.029,181.947h120.58V64.454H58.029V181.947z"/>
				</g>
			</g>
			<g>
				<g>
					<path fill="#EC297B" d="M237.112,138.556H104.507V9.041h132.605V138.556z M110.519,132.543H231.1V15.053h-120.58V132.543z"/>
				</g>
			</g>
		</g>
	</g>
</g>
</svg>
