<?xml version="1.0" standalone="no"?>
<!DOCTYPE svg PUBLIC "-//W3C//DTD SVG 20010904//EN"
 "http://www.w3.org/TR/2001/REC-SVG-20010904/DTD/svg10.dtd">
<svg version="1.0" xmlns="http://www.w3.org/2000/svg"
 width="952.000000pt" height="952.000000pt" viewBox="0 0 952.000000 952.000000"
 preserveAspectRatio="xMidYMid meet">
<metadata>
Created by potrace 1.11, written by Peter Selinger 2001-2013
</metadata>
<g transform="translate(0.000000,952.000000) scale(0.100000,-0.100000)"
fill="#000000" stroke="none">
<path d="M2034 8272 c-182 -172 -352 -333 -384 -362 -19 -18 -93 -88 -165
-155 -71 -68 -146 -137 -165 -155 -19 -18 -98 -92 -175 -165 -77 -73 -156
-147 -175 -165 -19 -17 -93 -87 -165 -155 -71 -68 -150 -142 -175 -165 -25
-23 -101 -95 -169 -159 -68 -64 -160 -150 -204 -191 -44 -41 -116 -110 -161
-152 -44 -43 -84 -78 -88 -78 -5 0 -8 -1170 -8 -2600 l0 -2600 3709 0 3709 0
40 38 c33 32 90 85 326 306 70 65 294 277 370 349 39 37 115 109 170 160 54
51 125 117 156 147 32 30 111 105 175 165 65 61 137 128 160 150 66 63 307
289 337 316 14 14 89 84 165 155 76 72 152 144 170 160 l32 29 0 2598 0 2597
-3707 0 -3707 0 -71 -68z m1896 -182 c0 -4 -38 -42 -85 -86 -46 -43 -122 -115
-169 -159 -46 -44 -136 -129 -201 -190 -65 -60 -143 -134 -174 -163 -31 -29
-107 -101 -170 -160 -231 -217 -442 -415 -520 -490 -116 -111 -253 -237 -260
-240 -4 -1 -6 334 -6 745 1 412 3 748 3 749 13 4 1582 -2 1582 -6z m3050 1 c3
0 -20 -24 -50 -52 -30 -28 -89 -83 -131 -123 -96 -90 -341 -321 -384 -361
-104 -98 -314 -295 -345 -325 -20 -19 -99 -93 -175 -165 -76 -71 -150 -141
-165 -155 -15 -14 -91 -86 -170 -160 -79 -74 -160 -151 -180 -170 -20 -19 -80
-75 -133 -125 l-97 -90 -350 0 c-308 -1 -350 1 -351 15 -1 19 -1 1692 0 1705
1 7 425 10 1264 9 694 -1 1264 -2 1267 -3z m2094 1 c5 -1 -15 -25 -45 -53
-111 -103 -190 -178 -324 -304 -76 -71 -155 -146 -175 -165 -21 -19 -98 -92
-171 -161 -74 -70 -150 -141 -169 -159 -19 -18 -98 -91 -174 -164 -197 -186
-212 -200 -326 -306 -56 -52 -138 -130 -183 -172 -45 -43 -84 -78 -87 -78 -4
0 -5 1564 -1 1566 3 1 1647 -3 1655 -4z m-4868 -902 c0 -560 -4 -820 -11 -821
-40 -6 -1735 -3 -1735 2 0 4 4 9 9 11 5 2 69 60 143 129 149 141 175 166 348
329 68 63 144 135 170 160 75 71 301 284 340 320 37 34 274 257 345 325 23 22
99 94 170 160 70 66 148 139 173 163 25 23 46 42 46 42 1 0 2 -369 2 -820z
m-2103 -2 c-1 -447 -2 -816 -2 -819 -1 -3 -393 -6 -872 -6 l-872 0 69 65 c221
208 311 292 353 332 27 25 108 101 181 170 73 69 154 145 180 170 42 40 143
135 388 365 41 39 101 95 133 125 32 30 111 105 175 165 64 61 149 140 188
177 39 37 73 68 76 68 3 0 4 -366 3 -812z m5072 -37 l0 -788 -832 0 c-458 0
-833 2 -833 5 0 4 16 20 210 202 79 74 160 151 180 170 34 33 235 222 325 305
94 88 450 423 510 480 36 35 152 144 375 353 36 34 65 62 65 62 0 0 0 -355 0
-789z m2101 714 c-1 -41 2 -75 7 -75 4 0 5 -6 0 -12 -10 -18 -10 -100 0 -115
6 -8 5 -13 -1 -13 -7 0 -8 -10 -2 -29 4 -16 6 -32 2 -35 -8 -9 -8 -137 1 -143
4 -2 4 -9 1 -15 -10 -16 -11 -328 -1 -328 5 0 5 -5 1 -12 -11 -17 -11 -108 -1
-108 5 0 5 -5 1 -12 -11 -17 -11 -108 -1 -108 5 0 5 -5 1 -12 -11 -17 -11
-108 -1 -108 5 0 5 -6 0 -12 -10 -16 -10 -36 -1 -70 3 -15 3 -30 0 -32 -9 -5
-8 -129 1 -144 4 -6 4 -13 0 -15 -5 -3 -7 -67 -6 -144 2 -76 3 -144 3 -150 0
-16 0 -99 0 -115 0 -7 -1 -44 -3 -83 -1 -38 1 -76 6 -82 5 -7 6 -13 1 -13 -11
0 -11 -121 0 -138 4 -7 4 -12 -1 -12 -10 0 -10 -211 0 -228 5 -6 5 -12 0 -12
-4 0 -8 -25 -8 -55 0 -30 4 -55 8 -55 4 0 4 -8 -1 -17 -4 -10 -7 -36 -5 -58 2
-22 3 -44 3 -50 0 -5 -1 -28 -3 -50 -2 -22 1 -48 5 -57 5 -10 5 -18 1 -18 -10
0 -10 -251 1 -268 4 -6 4 -12 -1 -12 -4 0 -8 -25 -8 -55 0 -30 4 -55 8 -55 4
0 4 -8 -1 -17 -4 -10 -7 -36 -5 -58 2 -22 3 -44 3 -50 0 -5 -1 -28 -3 -50 -2
-22 1 -48 5 -57 5 -10 5 -18 1 -18 -4 0 -7 -49 -6 -110 2 -60 3 -117 3 -125 0
-17 0 -98 0 -117 0 -7 -1 -44 -3 -83 -1 -38 1 -76 6 -82 5 -7 6 -13 1 -13 -11
0 -11 -121 0 -138 4 -7 3 -12 -3 -12 -6 0 -6 -11 -1 -29 4 -16 6 -32 2 -35 -8
-9 -8 -137 1 -143 4 -2 4 -10 0 -16 -4 -6 -7 -52 -7 -102 l-1 -90 -927 -1
c-856 -2 -928 -1 -929 15 0 9 -1 638 -1 1399 l-1 1383 60 57 c67 64 317 299
372 351 20 18 72 68 117 110 45 42 139 130 209 196 71 66 145 136 165 155 50
48 306 289 355 334 54 50 296 279 358 339 27 26 50 47 51 47 1 0 40 36 86 80
46 44 85 80 86 80 1 0 1 -34 0 -75z m-7178 -3145 l2 -1395 -24 -25 c-13 -14
-77 -74 -142 -135 -65 -60 -134 -126 -154 -145 -20 -19 -97 -91 -170 -160 -73
-69 -148 -138 -165 -155 -61 -57 -287 -270 -330 -310 -23 -22 -100 -95 -171
-162 -71 -66 -147 -138 -169 -158 -22 -21 -98 -93 -170 -161 -71 -67 -150
-141 -175 -164 -25 -23 -72 -67 -105 -99 -76 -73 -85 -78 -85 -49 0 34 1 110
2 117 0 3 0 11 -1 16 -3 13 -2 298 0 305 1 3 1 9 0 13 -4 23 -4 217 0 221 2 2
2 33 -1 68 -3 35 -3 91 0 126 3 35 3 65 1 68 -4 4 -4 115 0 142 1 4 1 12 0 17
-3 13 -2 298 0 305 1 3 1 9 0 13 -4 23 -4 217 0 221 2 2 2 33 -1 68 -3 35 -3
91 0 126 3 35 3 65 1 68 -4 4 -4 115 0 142 1 4 1 12 0 17 -3 13 -2 298 0 305
1 3 1 9 0 13 -4 23 -4 217 0 221 2 2 2 33 -1 68 -3 35 -3 91 0 126 3 35 3 65
1 68 -4 4 -4 115 0 142 1 4 1 12 0 17 -3 13 -2 298 0 305 1 3 1 9 0 13 -4 23
-4 217 0 221 2 2 2 33 -1 68 -3 35 -3 91 0 126 3 35 3 65 1 68 -4 4 -4 115 0
142 1 4 1 12 0 17 -3 13 -2 298 0 305 1 3 1 9 0 14 -5 24 -3 205 2 213 4 6
393 9 929 9 l923 -1 3 -1395z m2102 1391 c3 0 6 -612 5 -1358 l0 -1358 -927
-2 c-511 0 -929 2 -929 5 -1 4 -2 616 -3 1359 -1 1178 1 1353 14 1355 13 3
1829 2 1840 -1z m871 -36 c0 -43 0 -2561 -1 -2636 l0 -45 -307 0 c-170 0 -310
3 -313 7 -4 5 -5 2657 -1 2704 1 7 110 10 311 10 l310 0 1 -40z m2102 31 c2
-6 3 -618 3 -1361 l-1 -1350 -930 0 -930 0 -2 1350 c-1 743 0 1355 2 1361 4
15 1853 15 1858 0z m-3163 -2963 c0 -2 -12 -15 -27 -29 -29 -27 -231 -216
-313 -294 -95 -90 -408 -385 -499 -470 -45 -42 -278 -261 -330 -310 -222 -209
-400 -376 -458 -431 -12 -11 -26 -20 -30 -20 -4 1 -8 351 -9 779 l0 779 833 0
c458 0 833 -2 833 -4z m1060 -10 c1 -7 1 -362 1 -788 0 -426 0 -810 -1 -853
l0 -77 -1271 0 -1270 0 85 80 c46 44 144 136 217 205 73 69 145 136 159 150
31 29 264 248 330 310 25 23 106 99 180 169 74 71 153 145 175 165 116 109
294 277 336 316 54 52 263 248 319 300 l38 35 351 0 c276 0 351 -2 351 -12z
m1980 6 c0 -3 -50 -53 -112 -110 -61 -57 -130 -122 -153 -144 -23 -22 -106
-101 -185 -175 -79 -74 -158 -148 -175 -165 -18 -16 -90 -84 -160 -150 -71
-66 -154 -145 -186 -175 -32 -30 -103 -98 -160 -150 -56 -52 -128 -120 -159
-150 -150 -142 -407 -384 -434 -407 -12 -10 -14 109 -14 805 0 449 4 819 8
822 12 7 1730 7 1730 -1z m2003 -98 c-60 -58 -165 -158 -233 -221 -182 -170
-363 -340 -521 -490 -31 -30 -108 -102 -170 -160 -62 -58 -134 -125 -160 -150
-25 -25 -77 -74 -115 -109 -38 -35 -130 -122 -204 -192 -204 -193 -222 -209
-229 -209 -5 0 -7 1633 -2 1636 0 0 393 1 873 1 l871 0 -110 -106z m-6950
-799 c-1 -411 -2 -765 -2 -788 l-1 -41 -835 0 c-459 0 -835 1 -835 3 0 2 98
97 160 154 19 18 96 90 170 160 74 70 153 144 175 165 22 20 96 90 165 155 69
65 143 135 165 155 40 38 270 254 350 330 23 22 95 90 160 150 64 61 132 124
149 140 17 17 64 60 103 98 39 37 73 67 75 67 1 0 2 -336 1 -748z m5071 -69
c-1 -412 -2 -751 -3 -754 -1 -6 -1572 -9 -1583 -2 -4 2 6 16 22 31 15 15 84
79 151 142 68 63 139 131 159 150 20 19 94 89 164 155 71 66 152 143 181 170
60 56 259 243 320 300 22 21 103 97 179 169 77 72 175 165 219 206 44 41 104
99 135 128 30 28 55 52 56 52 1 0 0 -336 0 -747z"/>
</g>
</svg>
